<svg width="43" height="51" viewBox="0 0 43 51" fill="none" xmlns="http://www.w3.org/2000/svg">
<path fill-rule="evenodd" clip-rule="evenodd" d="M9.40884 44.8445L19.8484 26.7627L21.6202 27.7856L11.1806 45.8675L9.40884 44.8445Z" fill="black"/>
<path d="M30.3285 32.2628C27.3085 37.4938 20.6197 39.286 15.3888 36.2659C10.1578 33.2459 8.36559 26.5571 11.3857 21.3262C14.4057 16.0952 21.0945 14.303 26.3254 17.3231C31.5564 20.3431 33.3486 27.0319 30.3285 32.2628Z" fill="#0078D3"/>
<path fill-rule="evenodd" clip-rule="evenodd" d="M16.4117 34.4942C20.6641 36.9493 26.1016 35.4923 28.5568 31.2399C31.0119 26.9875 29.5549 21.55 25.3025 19.0948C21.0501 16.6397 15.6126 18.0967 13.1574 22.3491C10.7023 26.6015 12.1593 32.039 16.4117 34.4942ZM15.3888 36.2659C20.6197 39.286 27.3085 37.4938 30.3285 32.2628C33.3486 27.0319 31.5564 20.3432 26.3254 17.3231C21.0945 14.303 14.4057 16.0952 11.3857 21.3262C8.36559 26.5571 10.1578 33.2459 15.3888 36.2659Z" fill="black"/>
<path d="M24.5049 10.5325L33.1153 15.5037L26.6512 26.6997C25.2785 29.0774 22.2381 29.8921 19.8604 28.5193C17.4827 27.1466 16.6681 24.1062 18.0408 21.7285L24.5049 10.5325Z" fill="#0078D3"/>
<path fill-rule="evenodd" clip-rule="evenodd" d="M30.3206 16.2525L25.2537 13.3272L19.8126 22.7514C19.0048 24.1506 19.4842 25.9397 20.8834 26.7475C22.2825 27.5554 24.0717 27.076 24.8795 25.6768L30.3206 16.2525ZM24.5049 10.5325L18.0408 21.7285C16.6681 24.1062 17.4827 27.1466 19.8604 28.5193C22.2381 29.8921 25.2785 29.0774 26.6512 26.6997L33.1153 15.5037L24.5049 10.5325Z" fill="black"/>
<path d="M36.1284 17.2451C33.7948 21.2872 28.6262 22.6721 24.5841 20.3384C20.542 18.0047 19.1571 12.8361 21.4908 8.79405C23.8245 4.75197 28.9931 3.36705 33.0351 5.70075C37.0772 8.03445 38.4621 13.203 36.1284 17.2451Z" fill="#0078D3"/>
<path fill-rule="evenodd" clip-rule="evenodd" d="M25.607 18.5667C28.6706 20.3354 32.5879 19.2857 34.3567 16.2222C36.1254 13.1586 35.0758 9.24127 32.0122 7.47252C28.9487 5.70377 25.0313 6.75343 23.2625 9.81699C21.4938 12.8805 22.5435 16.7979 25.607 18.5667ZM24.5841 20.3384C28.6262 22.6721 33.7948 21.2872 36.1284 17.2451C38.4621 13.203 37.0772 8.03445 33.0351 5.70075C28.9931 3.36705 23.8245 4.75197 21.4908 8.79405C19.1571 12.8361 20.542 18.0047 24.5841 20.3384Z" fill="black"/>
</svg>
