<svg width="220" height="176" viewBox="0 0 220 176" fill="none" xmlns="http://www.w3.org/2000/svg">
<mask id="mask0_535_1056" style="mask-type:alpha" maskUnits="userSpaceOnUse" x="0" y="0" width="220" height="176">
<rect y="0.6698" width="220" height="175" fill="#D9D9D9"/>
</mask>
<g mask="url(#mask0_535_1056)">
<circle cx="83.1526" cy="117.73" r="18.6946" transform="rotate(45 83.1526 117.73)" fill="white" stroke="black" stroke-width="2.7"/>
<circle cx="83.1523" cy="117.73" r="12.4307" transform="rotate(45 83.1523 117.73)" fill="#FF5537" stroke="black" stroke-width="2.7"/>
<circle cx="83.1523" cy="117.731" r="6.16673" transform="rotate(45 83.1523 117.731)" fill="black" stroke="black" stroke-width="2.7"/>
<circle cx="20.0446" cy="20.0446" r="18.6946" transform="matrix(-0.707107 0.707107 0.707107 0.707107 139.347 50.4062)" fill="white" stroke="black" stroke-width="2.7"/>
<circle cx="13.7807" cy="13.7807" r="12.4307" transform="matrix(-0.707107 0.707107 0.707107 0.707107 139.348 59.2646)" fill="#0C9648" stroke="black" stroke-width="2.7"/>
<circle cx="7.51673" cy="7.51673" r="6.16673" transform="matrix(-0.707107 0.707107 0.707107 0.707107 139.348 68.1244)" fill="black" stroke="black" stroke-width="2.7"/>
<circle cx="20.0446" cy="20.0446" r="18.6946" transform="matrix(-0.707107 0.707107 0.707107 0.707107 80.6526 20.332)" fill="white" stroke="black" stroke-width="2.7"/>
<circle cx="13.7807" cy="13.7807" r="12.4307" transform="matrix(-0.707107 0.707107 0.707107 0.707107 80.6529 29.1904)" fill="#0078D3" stroke="black" stroke-width="2.7"/>
<circle cx="7.51673" cy="7.51673" r="6.16673" transform="matrix(-0.707107 0.707107 0.707107 0.707107 80.6529 38.0502)" fill="black" stroke="black" stroke-width="2.7"/>
</g>
</svg>
