<svg width="43" height="52" viewBox="0 0 43 52" fill="none" xmlns="http://www.w3.org/2000/svg">
<path fill-rule="evenodd" clip-rule="evenodd" d="M9.40884 45.467L19.8484 27.3851L21.6202 28.4081L11.1806 46.4899L9.40884 45.467Z" fill="black"/>
<path d="M30.3285 32.8853C27.3085 38.1162 20.6197 39.9085 15.3888 36.8884C10.1578 33.8683 8.36559 27.1795 11.3857 21.9486C14.4057 16.7177 21.0945 14.9254 26.3254 17.9455C31.5564 20.9656 33.3486 27.6543 30.3285 32.8853Z" fill="#0C9648"/>
<path fill-rule="evenodd" clip-rule="evenodd" d="M16.4117 35.1166C20.6641 37.5717 26.1016 36.1148 28.5568 31.8623C31.0119 27.6099 29.5549 22.1724 25.3025 19.7173C21.0501 17.2621 15.6126 18.7191 13.1574 22.9715C10.7023 27.2239 12.1593 32.6615 16.4117 35.1166ZM15.3888 36.8884C20.6197 39.9085 27.3085 38.1162 30.3285 32.8853C33.3486 27.6543 31.5564 20.9656 26.3254 17.9455C21.0945 14.9254 14.4057 16.7177 11.3857 21.9486C8.36559 27.1795 10.1578 33.8683 15.3888 36.8884Z" fill="black"/>
<path d="M24.5049 11.1549L33.1153 16.1261L26.6512 27.3222C25.2785 29.6999 22.2381 30.5145 19.8604 29.1418V29.1418C17.4827 27.769 16.6681 24.7286 18.0408 22.351L24.5049 11.1549Z" fill="#0C9648"/>
<path fill-rule="evenodd" clip-rule="evenodd" d="M30.3206 16.875L25.2537 13.9496L19.8126 23.3739C19.0048 24.7731 19.4842 26.5622 20.8834 27.37C22.2825 28.1778 24.0717 27.6984 24.8795 26.2992L30.3206 16.875ZM24.5049 11.1549L18.0408 22.351C16.6681 24.7286 17.4827 27.769 19.8604 29.1418C22.2381 30.5145 25.2785 29.6999 26.6512 27.3222L33.1153 16.1261L24.5049 11.1549Z" fill="black"/>
<path d="M36.1284 17.8676C33.7948 21.9096 28.6262 23.2946 24.5841 20.9609C20.542 18.6272 19.1571 13.4586 21.4908 9.41649C23.8245 5.37441 28.9931 3.98949 33.0351 6.32319C37.0772 8.65688 38.4621 13.8255 36.1284 17.8676Z" fill="#0C9648"/>
<path fill-rule="evenodd" clip-rule="evenodd" d="M25.607 19.1891C28.6706 20.9578 32.5879 19.9082 34.3567 16.8446C36.1254 13.7811 35.0758 9.8637 32.0122 8.09496C28.9487 6.32621 25.0313 7.37586 23.2625 10.4394C21.4938 13.503 22.5435 17.4203 25.607 19.1891ZM24.5841 20.9609C28.6262 23.2946 33.7948 21.9096 36.1284 17.8676C38.4621 13.8255 37.0772 8.65688 33.0351 6.32319C28.9931 3.98949 23.8245 5.37441 21.4908 9.41649C19.1571 13.4586 20.542 18.6272 24.5841 20.9609Z" fill="black"/>
</svg>
