<?xml version="1.0" encoding="UTF-8"?>
<svg id="Layer_1" data-name="Layer 1" xmlns="http://www.w3.org/2000/svg" viewBox="0 0 262.11 256.5">
  <defs>
    <style>
      .cls-1 {
        letter-spacing: 0em;
      }

      .cls-2, .cls-3 {
        fill: none;
      }

      .cls-3 {
        stroke: #000;
        stroke-miterlimit: 10;
        stroke-width: 5.4px;
      }

      .cls-4 {
        letter-spacing: 0em;
      }

      .cls-5 {
        letter-spacing: .01em;
      }

      .cls-6 {
        font-family: EuclidCircularB-Light, 'Euclid Circular B';
        font-size: 107.46px;
        font-weight: 300;
      }
    </style>
  </defs>
  <text class="cls-6" transform="translate(56.99 242.77) rotate(-45) scale(.7)"><tspan class="cls-4" x="0" y="0">СВ</tspan><tspan class="cls-1" x="150.88" y="0">О</tspan><tspan class="cls-5" x="239.32" y="0">Д</tspan></text>
  <g>
    <g>
      <line class="cls-3" x1="135" y1="104.36" x2="135" y2="22.01"/>
      <path d="M135,26.86l-9.73,5.92-.22-.33,6.3-15.86c1.22-5.53,2.43-11.05,3.65-16.58,1.22,5.53,2.43,11.05,3.65,16.58l6.3,15.86-.17.33-9.78-5.92Z"/>
    </g>
    <g>
      <line class="cls-3" x1="156.94" y1="127.91" x2="238.85" y2="127.91"/>
      <path d="M234,127.91l-5.92-9.73.33-.22,15.86,6.3c5.53,1.22,11.05,2.43,16.58,3.65-5.53,1.22-11.05,2.43-16.58,3.65l-15.86,6.3-.33-.17,5.92-9.78Z"/>
    </g>
    <g>
      <line class="cls-3" x1="112.16" y1="127.91" x2="30.25" y2="127.91"/>
      <path d="M35.1,127.91l5.92,9.73-.33.22-15.86-6.3c-5.53-1.22-11.05-2.43-16.58-3.65,5.53-1.22,11.05-2.43,16.58-3.65l15.86-6.3.33.17-5.92,9.78Z"/>
    </g>
    <g>
      <line class="cls-3" x1="135" y1="149.43" x2="135" y2="245.12"/>
      <path d="M125.86,244.66c0,5.05,4.09,9.14,9.14,9.14s9.14-4.09,9.14-9.14-4.09-9.14-9.14-9.14-9.14,4.09-9.14,9.14Z"/>
    </g>
    <rect class="cls-2" x="116.12" y="108.71" width="39.59" height="39.76"/>
  </g>
  <line class="cls-3" x1=".11" y1="128.09" x2="110.11" y2="128.09"/>
  <line class="cls-3" x1="160.11" y1="128.09" x2="262.11" y2="128.09"/>
</svg>