<svg width="633" height="238" viewBox="0 0 633 238" fill="none" xmlns="http://www.w3.org/2000/svg">
<rect x="0.428711" y="22.4873" width="625" height="215" transform="rotate(-2 0.428711 22.4873)" fill="white"/>
<path d="M472.004 51.3899C469.935 51.4622 468.23 50.8553 466.888 49.5694C465.547 48.2834 464.841 46.633 464.77 44.6183C464.701 42.6215 465.299 40.9346 466.566 39.5575C467.832 38.1625 469.49 37.4292 471.541 37.3575C473.358 37.2941 474.899 37.8526 476.165 39.0332C477.449 40.1951 478.127 41.8194 478.2 43.9062C478.209 44.176 478.208 44.4102 478.197 44.6087L467.134 44.995C467.214 46.253 467.7 47.2896 468.593 48.105C469.504 48.9197 470.625 49.3038 471.957 49.2573C473.846 49.1913 475.221 48.3598 476.084 46.7627L477.963 47.9669C476.725 50.1534 474.738 51.2944 472.004 51.3899ZM467.23 43.1005L475.784 42.8018C475.566 41.7287 475.06 40.8909 474.264 40.2883C473.486 39.6671 472.575 39.3747 471.532 39.4111C470.47 39.4482 469.528 39.8053 468.705 40.4824C467.9 41.1409 467.408 42.0136 467.23 43.1005Z" fill="black"/>
<path d="M451.746 51.8274L449.668 51.9L449.197 38.4082L451.517 38.3272L451.863 48.2301L459.127 38.0614L461.177 37.9898L461.649 51.4816L459.355 51.5617L459.009 41.6587L451.746 51.8274Z" fill="black"/>
<path d="M433.277 52.4722L432.806 38.9805L435.127 38.8994L435.321 44.458L442.687 44.2008L442.493 38.6422L444.814 38.5612L445.285 52.0529L442.964 52.134L442.761 46.3055L435.394 46.5628L435.598 52.3912L433.277 52.4722Z" fill="black"/>
<path d="M423.544 53.0823C421.475 53.1546 419.77 52.5477 418.429 51.2617C417.087 49.9758 416.381 48.3254 416.31 46.3106C416.241 44.3139 416.839 42.6269 418.106 41.2499C419.372 39.8549 421.03 39.1215 423.081 39.0499C424.898 38.9865 426.439 39.545 427.705 40.7256C428.989 41.8875 429.667 43.5118 429.74 45.5985C429.749 45.8684 429.748 46.1025 429.737 46.301L418.674 46.6874C418.754 47.9454 419.24 48.982 420.133 49.7973C421.044 50.6121 422.166 50.9962 423.497 50.9497C425.386 50.8837 426.761 50.0522 427.624 48.4551L429.503 49.6593C428.265 51.8458 426.279 52.9868 423.544 53.0823ZM418.77 44.7929L427.324 44.4942C427.106 43.4211 426.6 42.5833 425.804 41.9807C425.026 41.3595 424.115 41.0671 423.072 41.1035C422.01 41.1406 421.068 41.4977 420.245 42.1748C419.44 42.8333 418.948 43.706 418.77 44.7929Z" fill="black"/>
<path d="M407.234 53.6518C405.201 53.7227 403.487 53.1072 402.09 51.8051C400.712 50.4845 399.988 48.8437 399.919 46.8829C399.851 44.9221 400.459 43.2439 401.743 41.8482C403.044 40.4339 404.711 39.6913 406.744 39.6203C408.759 39.55 410.456 40.1751 411.835 41.4958C413.231 42.7979 413.963 44.4293 414.032 46.3901C414.1 48.3509 413.484 50.0384 412.182 51.4527C410.898 52.8484 409.249 53.5814 407.234 53.6518ZM403.71 50.2087C404.624 51.1133 405.773 51.5414 407.159 51.4931C408.544 51.4447 409.652 50.9377 410.483 49.9721C411.313 49.0066 411.705 47.8402 411.657 46.473C411.609 45.1059 411.137 43.9696 410.241 43.0644C409.345 42.1591 408.205 41.7306 406.819 41.779C405.434 41.8274 404.317 42.3347 403.468 43.3009C402.638 44.2664 402.246 45.4328 402.294 46.8C402.342 48.1672 402.814 49.3034 403.71 50.2087Z" fill="black"/>
<path d="M386.729 59.744L384.408 59.825L383.74 40.6937L386.061 40.6126L386.134 42.6904C386.577 41.9904 387.214 41.4099 388.045 40.9486C388.893 40.4687 389.811 40.2115 390.801 40.1769C392.671 40.1116 394.26 40.7405 395.567 42.0637C396.892 43.3863 397.589 45.019 397.657 46.9618C397.724 48.9046 397.144 50.5819 395.914 51.9937C394.703 53.4048 393.161 54.1431 391.291 54.2084C390.301 54.2429 389.367 54.0594 388.489 53.6578C387.628 53.2376 386.951 52.6939 386.46 52.0267L386.729 59.744ZM387.524 50.8008C388.421 51.706 389.534 52.1354 390.865 52.0889C392.197 52.0425 393.278 51.5364 394.108 50.5708C394.939 49.6053 395.33 48.4299 395.282 47.0447C395.234 45.6596 394.761 44.5144 393.865 43.6091C392.969 42.7038 391.855 42.2744 390.524 42.3209C389.193 42.3674 388.112 42.8734 387.281 43.839C386.45 44.8046 386.059 45.98 386.108 47.3651C386.156 48.7503 386.628 49.8955 387.524 50.8008Z" fill="black"/>
<path d="M374.759 54.5158L374.362 43.1557L370.072 43.3055L369.998 41.1738L381.088 40.7865L381.162 42.9182L376.683 43.0747L377.08 54.4347L374.759 54.5158Z" fill="black"/>
<path d="M362.965 55.1977C360.932 55.2686 359.218 54.6531 357.821 53.351C356.443 52.0483 355.719 50.4076 355.65 48.4288C355.581 46.45 356.189 44.7628 357.473 43.3671C358.775 41.9708 360.442 41.2372 362.475 41.1662C363.842 41.1185 365.077 41.3995 366.179 42.0095C367.299 42.6187 368.184 43.4704 368.834 44.5643L366.85 45.7683C366.427 44.9906 365.838 44.3808 365.084 43.9388C364.348 43.4962 363.504 43.2916 362.55 43.3249C361.165 43.3733 360.048 43.8806 359.199 44.8468C358.351 45.813 357.95 46.9797 357.998 48.3468C358.046 49.714 358.527 50.8499 359.441 51.7546C360.355 52.6592 361.504 53.0873 362.89 53.039C363.843 53.0057 364.671 52.7426 365.375 52.2498C366.096 51.7563 366.64 51.1069 367.009 50.3016L369.072 51.3642C368.499 52.5009 367.676 53.4122 366.601 54.0981C365.544 54.7834 364.332 55.1499 362.965 55.1977Z" fill="black"/>
<path d="M345.51 55.8074C343.639 55.8728 342.041 55.2441 340.716 53.9216C339.409 52.5984 338.722 50.9654 338.654 49.0226C338.586 47.0797 339.158 45.4028 340.369 43.9916C341.599 42.5799 343.149 41.8413 345.02 41.776C346.009 41.7414 346.934 41.9342 347.796 42.3545C348.674 42.756 349.359 43.2905 349.851 43.9577L349.778 41.88L352.099 41.7989L352.57 55.2907L350.249 55.3717L350.177 53.294C349.733 53.9939 349.087 54.5838 348.239 55.0637C347.409 55.525 346.499 55.7729 345.51 55.8074ZM345.786 53.6635C347.117 53.617 348.198 53.111 349.029 52.1454C349.86 51.1798 350.251 50.0044 350.203 48.6193C350.154 47.2341 349.682 46.0889 348.786 45.1836C347.89 44.2783 346.776 43.8489 345.445 43.8954C344.096 43.9425 343.006 44.4489 342.175 45.4145C341.344 46.3801 340.953 47.5554 341.001 48.9406C341.05 50.3257 341.522 51.471 342.418 52.3762C343.314 53.2815 344.437 53.7106 345.786 53.6635Z" fill="black"/>
<path d="M323.551 56.3038L323.08 42.812L325.401 42.731L325.595 48.2896L332.961 48.0323L332.767 42.4737L335.088 42.3927L335.559 55.8845L333.238 55.9655L333.035 50.1371L325.668 50.3943L325.872 56.2228L323.551 56.3038Z" fill="black"/>
<path d="M307.31 57.141C305.241 57.2133 303.536 56.6064 302.194 55.3205C300.852 54.0345 300.146 52.3841 300.076 50.3694C300.006 48.3726 300.605 46.6857 301.871 45.3086C303.137 43.9136 304.796 43.1803 306.847 43.1086C308.664 43.0452 310.205 43.6037 311.471 44.7843C312.754 45.9462 313.432 47.5705 313.505 49.6573C313.515 49.9271 313.514 50.1613 313.503 50.3598L302.44 50.7461C302.519 52.0041 303.006 53.0407 303.899 53.8561C304.81 54.6708 305.931 55.0549 307.262 55.0084C309.151 54.9424 310.527 54.1109 311.39 52.5138L313.269 53.718C312.03 55.9045 310.044 57.0455 307.31 57.141ZM302.535 48.8516L311.089 48.5529C310.872 47.4798 310.365 46.642 309.57 46.0394C308.791 45.4182 307.881 45.1258 306.837 45.1622C305.776 45.1993 304.834 45.5564 304.011 46.2335C303.205 46.892 302.714 47.7647 302.535 48.8516ZM303.716 40.8945C303.267 40.9102 302.884 40.7705 302.567 40.4754C302.251 40.1803 302.085 39.8168 302.07 39.3851C302.055 38.9533 302.195 38.5792 302.49 38.2627C302.784 37.9283 303.156 37.7532 303.606 37.7375C304.038 37.7224 304.412 37.8714 304.73 38.1845C305.046 38.4797 305.212 38.8431 305.227 39.2748C305.242 39.7066 305.102 40.0807 304.807 40.3972C304.512 40.7137 304.148 40.8795 303.716 40.8945ZM310.878 40.1852C310.583 40.5017 310.22 40.6674 309.788 40.6825C309.356 40.6976 308.973 40.5579 308.638 40.2634C308.322 39.9682 308.156 39.6048 308.141 39.1731C308.126 38.7413 308.266 38.3672 308.561 38.0507C308.874 37.7156 309.246 37.5405 309.678 37.5254C310.109 37.5104 310.484 37.6594 310.801 37.9725C311.117 38.2677 311.283 38.6311 311.298 39.0628C311.313 39.4946 311.173 39.8687 310.878 40.1852Z" fill="black"/>
<path d="M290.999 57.7108C288.966 57.7818 287.252 57.1663 285.856 55.8642C284.477 54.5435 283.753 52.9028 283.684 50.942C283.616 48.9812 284.224 47.303 285.508 45.9073C286.809 44.493 288.476 43.7504 290.509 43.6794C292.524 43.609 294.221 44.2342 295.6 45.5549C296.996 46.8569 297.728 48.4884 297.797 50.4492C297.865 52.41 297.249 54.0975 295.947 55.5118C294.663 56.9075 293.014 57.6405 290.999 57.7108ZM287.475 54.2677C288.389 55.1724 289.539 55.6005 290.924 55.5522C292.309 55.5038 293.417 54.9968 294.248 54.0312C295.079 53.0656 295.47 51.8993 295.422 50.5321C295.375 49.1649 294.903 48.0287 294.006 47.1234C293.11 46.2182 291.97 45.7897 290.585 45.8381C289.199 45.8864 288.082 46.3937 287.234 47.3599C286.403 48.3255 286.011 49.4919 286.059 50.8591C286.107 52.2262 286.579 53.3625 287.475 54.2677Z" fill="black"/>
<path d="M270.296 58.1637L269.825 44.6719L275.707 44.4665C277.2 44.4143 278.354 44.7072 279.169 45.3452C279.984 45.9831 280.411 46.8598 280.449 47.9751C280.487 49.0364 280.076 49.9243 279.219 50.6387C280.719 51.3067 281.495 52.3783 281.546 53.8534C281.586 54.9867 281.214 55.9363 280.43 56.7021C279.646 57.4679 278.445 57.8791 276.826 57.9356L270.296 58.1637ZM272.546 56.0588L276.89 55.9071C277.61 55.882 278.17 55.6823 278.571 55.3081C278.99 54.9332 279.189 54.431 279.167 53.8014C279.145 53.1718 278.912 52.6936 278.469 52.3669C278.042 52.0216 277.469 51.8615 276.75 51.8866L272.405 52.0383L272.546 56.0588ZM272.34 50.1764L276.091 50.0455C277.476 49.9971 278.148 49.3703 278.106 48.165C278.084 47.5354 277.87 47.0926 277.465 46.8366C277.059 46.5626 276.559 46.4359 275.966 46.4566L272.215 46.5876L272.34 50.1764Z" fill="black"/>
<path d="M261.065 58.7562C259.032 58.8272 257.318 58.2117 255.921 56.9096C254.543 55.6069 253.819 53.9662 253.75 51.9874C253.681 50.0086 254.289 48.3214 255.573 46.9257C256.875 45.5294 258.542 44.7958 260.575 44.7248C261.942 44.6771 263.177 44.9581 264.279 45.5681C265.399 46.1773 266.284 47.029 266.935 48.1229L264.95 49.3269C264.527 48.5492 263.938 47.9394 263.184 47.4974C262.449 47.0548 261.604 46.8502 260.65 46.8835C259.265 46.9319 258.148 47.4391 257.3 48.4054C256.451 49.3716 256.05 50.5383 256.098 51.9054C256.146 53.2726 256.627 54.4085 257.541 55.3131C258.455 56.2178 259.605 56.6459 260.99 56.5976C261.943 56.5643 262.771 56.3012 263.475 55.8084C264.196 55.3149 264.741 54.6655 265.109 53.8601L267.172 54.9228C266.599 56.0595 265.776 56.9708 264.701 57.6567C263.644 58.342 262.432 58.7085 261.065 58.7562Z" fill="black"/>
<path d="M235.776 59.3692L235.305 45.8774L237.625 45.7964L237.795 50.6534L240.925 50.5441C242.544 50.4876 243.782 50.8676 244.639 51.6842C245.514 52.5002 245.972 53.4928 246.013 54.6621C246.054 55.8494 245.667 56.8895 244.852 57.7825C244.036 58.6575 242.819 59.1233 241.2 59.1798L235.776 59.3692ZM237.868 52.7582L238.023 57.1835L241.045 57.0779C241.909 57.0478 242.567 56.8267 243.021 56.4146C243.493 56.0018 243.717 55.4447 243.692 54.7431C243.668 54.0415 243.415 53.51 242.934 53.1486C242.453 52.7872 241.781 52.6215 240.918 52.6517L237.868 52.7582Z" fill="black"/>
<path d="M219.385 59.9415L218.914 46.4497L221.235 46.3687L221.429 51.9273L228.795 51.67L228.601 46.1114L230.922 46.0304L231.393 59.5222L229.072 59.6032L228.869 53.7748L221.502 54.032L221.706 59.8604L219.385 59.9415Z" fill="black"/>
<path d="M205.073 60.4412L202.995 60.5137L202.524 47.022L204.845 46.9409L205.19 56.8439L212.454 46.6752L214.505 46.6036L214.976 60.0954L212.682 60.1755L212.336 50.2725L205.073 60.4412Z" fill="black"/>
<path d="M186.921 61.0753L186.45 47.5835L198.161 47.1745L198.632 60.6663L196.311 60.7474L195.914 49.3873L188.845 49.6342L189.241 60.9942L186.921 61.0753Z" fill="black"/>
<path d="M175.492 61.7444C173.621 61.8098 172.023 61.1811 170.698 59.8586C169.391 58.5354 168.704 56.9024 168.636 54.9596C168.568 53.0168 169.14 51.3398 170.352 49.9286C171.581 48.5169 173.131 47.7783 175.002 47.713C175.991 47.6784 176.917 47.8713 177.778 48.2915C178.657 48.693 179.342 49.2275 179.833 49.8947L179.761 47.817L182.081 47.7359L182.552 61.2277L180.232 61.3088L180.159 59.231C179.715 59.9309 179.07 60.5208 178.222 61.0007C177.391 61.462 176.481 61.7099 175.492 61.7444ZM175.768 59.6005C177.1 59.554 178.181 59.048 179.011 58.0824C179.842 57.1168 180.233 55.9414 180.185 54.5563C180.137 53.1711 179.664 52.0259 178.768 51.1206C177.872 50.2153 176.758 49.786 175.427 49.8324C174.078 49.8796 172.988 50.3859 172.157 51.3515C171.327 52.3171 170.935 53.4924 170.984 54.8776C171.032 56.2627 171.504 57.408 172.4 58.3132C173.297 59.2185 174.419 59.6476 175.768 59.6005Z" fill="black"/>
<path d="M154.725 46.7189L153.128 45.0727C154.675 43.4697 156.635 42.6267 159.01 42.5438C160.773 42.4823 162.22 42.909 163.35 43.8241C164.499 44.7386 165.1 45.9694 165.154 47.5164C165.223 49.4952 164.454 50.9449 162.848 51.8656C164.999 52.6189 166.115 54.1379 166.195 56.4225C166.256 58.1855 165.657 59.6022 164.398 60.6728C163.138 61.7255 161.572 62.2844 159.702 62.3498C158.262 62.4 156.94 62.185 155.735 61.7048C154.529 61.2066 153.539 60.4667 152.766 59.485L154.546 57.8289C155.111 58.5476 155.842 59.0985 156.738 59.4814C157.652 59.8638 158.612 60.0374 159.62 60.0022C160.915 59.957 161.929 59.5973 162.662 58.9234C163.413 58.2487 163.77 57.3987 163.734 56.3734C163.7 55.384 163.33 54.5954 162.625 54.0076C161.92 53.4199 160.92 53.1486 159.625 53.1938L157.089 53.2824L157.014 51.1507L159.578 51.0612C160.603 51.0254 161.393 50.7006 161.948 50.0869C162.503 49.4731 162.765 48.7255 162.734 47.8441C162.702 46.9087 162.361 46.1731 161.712 45.6374C161.062 45.1018 160.135 44.846 158.929 44.8701C157.309 44.8906 155.907 45.5069 154.725 46.7189Z" fill="black"/>
<path d="M140.442 147.997C141.584 180.7 115.999 208.136 83.2963 209.278C50.5933 210.42 23.1566 184.835 22.0146 152.132C20.8726 119.429 46.4577 91.9927 79.1607 90.8507C111.864 89.7086 139.3 115.294 140.442 147.997Z" fill="white"/>
<path fill-rule="evenodd" clip-rule="evenodd" d="M83.202 206.58C114.415 205.49 138.834 179.304 137.744 148.091C136.654 116.878 110.468 92.459 79.2549 93.549C48.0422 94.639 23.623 120.825 24.7129 152.038C25.8029 183.251 51.9894 207.67 83.202 206.58ZM83.2963 209.278C115.999 208.136 141.584 180.7 140.442 147.997C139.3 115.294 111.864 89.7086 79.1607 90.8507C46.4577 91.9927 20.8726 119.429 22.0146 152.132C23.1566 184.835 50.5933 210.42 83.2963 209.278Z" fill="black"/>
<path d="M81.085 159.575L80.4961 142.71L76.7993 142.84L78.6081 140.48L82.7366 140.336L83.4056 159.494L81.085 159.575Z" fill="black"/>
<path d="M258.87 143.861C260.012 176.564 234.427 204.001 201.724 205.143C169.021 206.285 141.584 180.7 140.442 147.997C139.3 115.294 164.885 87.8569 197.588 86.7149C230.291 85.5729 257.728 111.158 258.87 143.861Z" fill="white"/>
<path fill-rule="evenodd" clip-rule="evenodd" d="M201.63 202.444C232.842 201.354 257.262 175.168 256.172 143.955C255.082 112.743 228.895 88.3233 197.683 89.4133C166.47 90.5032 142.051 116.69 143.141 147.902C144.231 179.115 170.417 203.534 201.63 202.444ZM201.724 205.143C234.427 204.001 260.012 176.564 258.87 143.861C257.728 111.158 230.291 85.5729 197.588 86.7149C164.885 87.8569 139.3 115.294 140.442 147.997C141.584 180.7 169.021 206.285 201.724 205.143Z" fill="black"/>
<path d="M206.121 152.966L206.199 155.206L193.787 155.639L193.755 154.722C193.732 154.056 193.809 153.423 193.986 152.823C194.18 152.204 194.396 151.683 194.634 151.26C194.871 150.838 195.251 150.365 195.773 149.843C196.294 149.302 196.704 148.909 197.001 148.665C197.298 148.402 197.798 148.007 198.5 147.478C199.201 146.931 199.666 146.573 199.894 146.403C201.139 145.423 201.993 144.609 202.457 143.963C202.938 143.298 203.16 142.443 203.124 141.4C203.088 140.392 202.737 139.603 202.068 139.032C201.399 138.443 200.543 138.167 199.5 138.203C198.403 138.242 197.479 138.607 196.728 139.3C195.978 139.992 195.624 140.932 195.665 142.12L193.291 142.203C193.228 140.404 193.771 138.926 194.919 137.769C196.085 136.612 197.577 136.001 199.394 135.938C201.085 135.879 202.505 136.315 203.654 137.248C204.821 138.18 205.436 139.545 205.499 141.344C205.547 142.711 205.255 143.892 204.623 144.887C203.991 145.863 202.886 146.965 201.308 148.19C201.009 148.417 200.588 148.738 200.044 149.153C199.5 149.55 199.079 149.871 198.781 150.116C198.484 150.36 198.152 150.66 197.786 151.015C197.437 151.351 197.162 151.712 196.959 152.098C196.774 152.464 196.644 152.865 196.569 153.3L206.121 152.966Z" fill="black"/>
<path d="M377.298 139.726C378.44 172.429 352.855 199.865 320.152 201.007C287.449 202.149 260.012 176.564 258.87 143.861C257.728 111.158 283.313 83.7217 316.016 82.5797C348.719 81.4377 376.156 107.023 377.298 139.726Z" fill="white" fill-opacity="0.5"/>
<path fill-rule="evenodd" clip-rule="evenodd" d="M320.058 198.309C351.27 197.219 375.689 171.033 374.6 139.82C373.51 108.607 347.323 84.1881 316.11 85.278C284.898 86.368 260.478 112.554 261.568 143.767C262.658 174.98 288.845 199.399 320.058 198.309ZM320.152 201.007C352.855 199.865 378.44 172.429 377.298 139.726C376.156 107.023 348.719 81.4377 316.016 82.5797C283.313 83.7217 257.728 111.158 258.87 143.861C260.012 176.564 287.449 202.149 320.152 201.007Z" fill="black"/>
<path d="M318.613 151.551C316.706 151.618 315.067 151.099 313.695 149.994C312.341 148.87 311.634 147.436 311.573 145.691L313.921 145.609C314.032 146.74 314.523 147.651 315.394 148.341C316.264 149.013 317.31 149.327 318.534 149.285C319.649 149.246 320.565 148.907 321.281 148.27C321.997 147.633 322.336 146.774 322.299 145.695C322.258 144.544 321.851 143.693 321.075 143.144C320.317 142.594 319.291 142.342 317.996 142.387L316.565 142.437L316.491 140.305L318.029 140.252C319.054 140.216 319.881 139.899 320.508 139.301C321.154 138.702 321.47 137.943 321.456 137.025C321.424 136.126 321.066 135.4 320.38 134.847C319.712 134.294 318.884 134.035 317.894 134.07C316.761 134.109 315.819 134.475 315.069 135.168C314.319 135.86 313.964 136.8 314.006 137.988L311.631 138.071C311.567 136.236 312.127 134.748 313.312 133.608C314.497 132.468 315.998 131.866 317.815 131.803C319.488 131.745 320.89 132.182 322.021 133.115C323.17 134.029 323.772 135.278 323.827 136.861C323.841 137.779 323.618 138.616 323.158 139.37C322.716 140.124 322.125 140.712 321.383 141.134C322.368 141.496 323.154 142.081 323.741 142.889C324.327 143.679 324.638 144.614 324.676 145.693C324.734 147.366 324.197 148.745 323.064 149.829C321.932 150.913 320.448 151.487 318.613 151.551Z" fill="black"/>
<path d="M495.726 135.59C496.868 168.293 471.282 195.73 438.579 196.872C405.877 198.014 378.44 172.429 377.298 139.726C376.156 107.023 401.741 79.5859 434.444 78.4439C467.147 77.3019 494.584 102.887 495.726 135.59Z" fill="white" fill-opacity="0.5"/>
<path fill-rule="evenodd" clip-rule="evenodd" d="M438.485 194.173C469.698 193.083 494.117 166.897 493.027 135.684C491.937 104.472 465.751 80.0523 434.538 81.1423C403.325 82.2322 378.906 108.419 379.996 139.631C381.086 170.844 407.273 195.263 438.485 194.173ZM438.579 196.872C471.282 195.73 496.868 168.293 495.726 135.59C494.584 102.887 467.147 77.3019 434.444 78.4439C401.741 79.5859 376.156 107.023 377.298 139.726C378.44 172.429 405.877 198.014 438.579 196.872Z" fill="black"/>
<path d="M439.175 147.071L438.993 141.863L428.793 142.219L428.728 140.357L438.803 127.902L440.827 127.831L441.237 139.596L443.882 139.504L443.958 141.689L441.314 141.782L441.496 146.99L439.175 147.071ZM431.739 139.928L438.917 139.677L438.628 131.42L431.739 139.928Z" fill="black"/>
<path d="M614.154 131.454C615.296 164.157 589.711 191.594 557.008 192.736C524.305 193.878 496.868 168.293 495.726 135.59C494.584 102.887 520.169 75.4502 552.872 74.3082C585.575 73.1662 613.012 98.7514 614.154 131.454Z" fill="white"/>
<path fill-rule="evenodd" clip-rule="evenodd" d="M556.913 190.038C588.126 188.948 612.545 162.761 611.455 131.549C610.365 100.336 584.179 75.9166 552.966 77.0065C521.754 78.0965 497.334 104.283 498.424 135.496C499.514 166.708 525.701 191.128 556.913 190.038ZM557.008 192.736C589.711 191.594 615.296 164.157 614.154 131.454C613.012 98.7514 585.575 73.1662 552.872 74.3082C520.169 75.4502 494.584 102.887 495.726 135.59C496.868 168.293 524.305 193.878 557.008 192.736Z" fill="black"/>
<path d="M555.191 143.289C553.464 143.35 551.952 142.862 550.655 141.827C549.358 140.791 548.666 139.537 548.578 138.063L550.953 137.98C551.202 138.908 551.705 139.656 552.463 140.224C553.221 140.792 554.104 141.058 555.112 141.023C556.281 140.982 557.248 140.552 558.011 139.733C558.775 138.914 559.137 137.928 559.097 136.777C559.056 135.608 558.644 134.641 557.861 133.875C557.078 133.11 556.102 132.748 554.932 132.789C553.331 132.845 552.149 133.535 551.384 134.858L549.149 134.288L550.762 123.992L559.72 123.679L559.799 125.946L552.703 126.194L551.842 131.708C552.754 131.01 553.858 130.638 555.153 130.593C556.934 130.531 558.413 131.109 559.59 132.329C560.785 133.53 561.415 135.084 561.482 136.991C561.541 138.682 560.971 140.143 559.771 141.373C558.57 142.586 557.044 143.225 555.191 143.289Z" fill="black"/>
<path fill-rule="evenodd" clip-rule="evenodd" d="M60.472 126.472L75.7803 99.9575L78.3783 101.458L63.0701 127.972L60.472 126.472Z" fill="black"/>
<path d="M91.1479 108.022C86.7193 115.693 76.9111 118.321 69.2406 113.892C61.5701 109.464 58.942 99.6553 63.3705 91.9849C67.7991 84.3144 77.6073 81.6863 85.2778 86.1148C92.9483 90.5434 95.5764 100.352 91.1479 108.022Z" fill="#FF5537"/>
<path fill-rule="evenodd" clip-rule="evenodd" d="M70.7406 111.294C76.9762 114.894 84.9496 112.758 88.5498 106.522C92.1499 100.286 90.0134 92.313 83.7778 88.7129C77.5422 85.1128 69.5687 87.2492 65.9686 93.4849C62.3685 99.7205 64.505 107.694 70.7406 111.294ZM69.2406 113.892C76.9111 118.321 86.7193 115.693 91.1479 108.022C95.5764 100.352 92.9483 90.5434 85.2778 86.1148C77.6073 81.6863 67.7991 84.3144 63.3705 91.9849C58.942 99.6553 61.5701 109.464 69.2406 113.892Z" fill="black"/>
<path d="M82.6084 76.1577L95.2345 83.4474L85.7558 99.865C83.7428 103.352 79.2845 104.546 75.7979 102.533V102.533C72.3113 100.52 71.1167 96.0619 73.1297 92.5753L82.6084 76.1577Z" fill="#FF5537"/>
<path fill-rule="evenodd" clip-rule="evenodd" d="M91.1364 84.5454L83.7065 80.2558L75.7278 94.0753C74.5432 96.127 75.2462 98.7505 77.2979 99.9351C79.3496 101.12 81.9731 100.417 83.1577 98.365L91.1364 84.5454ZM82.6084 76.1577L73.1297 92.5753C71.1167 96.0619 72.3113 100.52 75.7979 102.533C79.2845 104.546 83.7428 103.352 85.7558 99.865L95.2345 83.4474L82.6084 76.1577Z" fill="black"/>
<path d="M99.6529 86.0005C96.2308 91.9277 88.6517 93.9586 82.7245 90.5365C76.7973 87.1144 74.7665 79.5353 78.1886 73.6081C81.6106 67.6809 89.1897 65.6501 95.1169 69.0722C101.044 72.4943 103.075 80.0733 99.6529 86.0005Z" fill="#FF5537"/>
<path fill-rule="evenodd" clip-rule="evenodd" d="M84.2245 87.9384C88.7168 90.532 94.4611 88.9929 97.0548 84.5005C99.6484 80.0082 98.1092 74.2639 93.6169 71.6703C89.1246 69.0766 83.3803 70.6158 80.7866 75.1081C78.193 79.6004 79.7322 85.3448 84.2245 87.9384ZM82.7245 90.5365C88.6517 93.9586 96.2308 91.9277 99.6529 86.0005C103.075 80.0733 101.044 72.4943 95.1169 69.0722C89.1897 65.6501 81.6106 67.6809 78.1886 73.6081C74.7665 79.5353 76.7973 87.1144 82.7245 90.5365Z" fill="black"/>
<path fill-rule="evenodd" clip-rule="evenodd" d="M455.956 141.395L471.265 114.88L473.863 116.38L458.554 142.895L455.956 141.395Z" fill="black"/>
<path d="M486.632 122.944C482.204 130.615 472.395 133.243 464.725 128.814C457.054 124.386 454.426 114.578 458.855 106.907C463.283 99.2367 473.092 96.6086 480.762 101.037C488.433 105.466 491.061 115.274 486.632 122.944Z" fill="#0C9648"/>
<path fill-rule="evenodd" clip-rule="evenodd" d="M466.225 126.216C472.461 129.817 480.434 127.68 484.034 121.444C487.634 115.209 485.498 107.235 479.262 103.635C473.027 100.035 465.053 102.172 461.453 108.407C457.853 114.643 459.989 122.616 466.225 126.216ZM464.725 128.814C472.395 133.243 482.204 130.615 486.632 122.944C491.061 115.274 488.433 105.466 480.762 101.037C473.092 96.6086 463.283 99.2367 458.855 106.907C454.426 114.578 457.054 124.386 464.725 128.814Z" fill="black"/>
<path d="M478.093 91.0801L490.719 98.3697L481.24 114.787C479.227 118.274 474.769 119.469 471.282 117.456V117.456C467.796 115.443 466.601 110.984 468.614 107.498L478.093 91.0801Z" fill="#0C9648"/>
<path fill-rule="evenodd" clip-rule="evenodd" d="M486.621 99.4678L479.191 95.1782L471.212 108.998C470.028 111.049 470.731 113.673 472.782 114.857C474.834 116.042 477.457 115.339 478.642 113.287L486.621 99.4678ZM478.093 91.0801L468.614 107.498C466.601 110.984 467.796 115.443 471.282 117.456C474.769 119.469 479.227 118.274 481.24 114.787L490.719 98.3697L478.093 91.0801Z" fill="black"/>
<path d="M495.137 100.923C491.715 106.85 484.136 108.881 478.209 105.459C472.282 102.037 470.251 94.4577 473.673 88.5305C477.095 82.6033 484.674 80.5725 490.601 83.9945C496.528 87.4166 498.559 94.9957 495.137 100.923Z" fill="#0C9648"/>
<path fill-rule="evenodd" clip-rule="evenodd" d="M479.709 102.861C484.201 105.454 489.946 103.915 492.539 99.4229C495.133 94.9306 493.594 89.1863 489.101 86.5926C484.609 83.999 478.865 85.5382 476.271 90.0305C473.677 94.5228 475.217 100.267 479.709 102.861ZM478.209 105.459C484.136 108.881 491.715 106.85 495.137 100.923C498.559 94.9957 496.528 87.4166 490.601 83.9945C484.674 80.5725 477.095 82.6033 473.673 88.5305C470.251 94.4577 472.282 102.037 478.209 105.459Z" fill="black"/>
</svg>
