<svg width="43" height="52" viewBox="0 0 43 52" fill="none" xmlns="http://www.w3.org/2000/svg">
<path fill-rule="evenodd" clip-rule="evenodd" d="M9.40908 45.467L19.8486 27.3851L21.6204 28.4081L11.1809 46.4899L9.40908 45.467Z" fill="black"/>
<path d="M30.3288 32.8853C27.3087 38.1162 20.6199 39.9085 15.389 36.8884C10.1581 33.8683 8.36583 27.1795 11.3859 21.9486C14.406 16.7177 21.0948 14.9254 26.3257 17.9455C31.5566 20.9656 33.3489 27.6543 30.3288 32.8853Z" fill="#FF5537"/>
<path fill-rule="evenodd" clip-rule="evenodd" d="M16.4119 35.1166C20.6644 37.5717 26.1019 36.1148 28.557 31.8623C31.0121 27.6099 29.5552 22.1724 25.3028 19.7173C21.0503 17.2621 15.6128 18.7191 13.1577 22.9715C10.7026 27.2239 12.1595 32.6615 16.4119 35.1166ZM15.389 36.8884C20.6199 39.9085 27.3087 38.1162 30.3288 32.8853C33.3489 27.6543 31.5566 20.9656 26.3257 17.9455C21.0948 14.9254 14.406 16.7177 11.3859 21.9486C8.36583 27.1795 10.1581 33.8683 15.389 36.8884Z" fill="black"/>
<path d="M24.5051 11.1549L33.1155 16.1261L26.6515 27.3222C25.2787 29.6999 22.2384 30.5145 19.8607 29.1418V29.1418C17.483 27.769 16.6683 24.7286 18.0411 22.351L24.5051 11.1549Z" fill="#FF5537"/>
<path fill-rule="evenodd" clip-rule="evenodd" d="M30.3208 16.875L25.254 13.9496L19.8129 23.3739C19.005 24.7731 19.4844 26.5622 20.8836 27.37C22.2828 28.1778 24.0719 27.6984 24.8797 26.2992L30.3208 16.875ZM24.5051 11.1549L18.0411 22.351C16.6683 24.7286 17.483 27.769 19.8607 29.1418C22.2384 30.5145 25.2787 29.6999 26.6515 27.3222L33.1155 16.1261L24.5051 11.1549Z" fill="black"/>
<path d="M36.1287 17.8676C33.795 21.9096 28.6264 23.2946 24.5843 20.9609C20.5422 18.6272 19.1573 13.4586 21.491 9.41649C23.8247 5.37441 28.9933 3.98949 33.0354 6.32319C37.0775 8.65688 38.4624 13.8255 36.1287 17.8676Z" fill="#FF5537"/>
<path fill-rule="evenodd" clip-rule="evenodd" d="M25.6073 19.1891C28.6708 20.9578 32.5882 19.9082 34.3569 16.8446C36.1257 13.7811 35.076 9.8637 32.0125 8.09496C28.9489 6.32621 25.0315 7.37586 23.2628 10.4394C21.494 13.503 22.5437 17.4203 25.6073 19.1891ZM24.5843 20.9609C28.6264 23.2946 33.795 21.9096 36.1287 17.8676C38.4624 13.8255 37.0775 8.65688 33.0354 6.32319C28.9933 3.98949 23.8247 5.37441 21.491 9.41649C19.1573 13.4586 20.5422 18.6272 24.5843 20.9609Z" fill="black"/>
</svg>
