<svg width="129" height="129" viewBox="0 0 129 129" fill="none" xmlns="http://www.w3.org/2000/svg">
<mask id="mask0_655_1496" style="mask-type:alpha" maskUnits="userSpaceOnUse" x="0" y="0" width="129" height="129">
<rect x="0.648438" y="0.983047" width="128" height="128" fill="#D9D9D9"/>
</mask>
<g mask="url(#mask0_655_1496)">
<mask id="path-2-inside-1_655_1496" fill="white">
<path fill-rule="evenodd" clip-rule="evenodd" d="M43.2983 101.883V83.091L-38.1611 83.091V101.883L24.5049 101.883V146.676H43.2969V101.883H43.2983Z"/>
</mask>
<path fill-rule="evenodd" clip-rule="evenodd" d="M43.2983 101.883V83.091L-38.1611 83.091V101.883L24.5049 101.883V146.676H43.2969V101.883H43.2983Z" fill="#13960C"/>
<path d="M43.2983 83.091H45.9983V80.391L43.2983 80.391L43.2983 83.091ZM43.2983 101.883V104.583H45.9983V101.883H43.2983ZM-38.1611 83.091L-38.1611 80.391L-40.8611 80.391V83.091H-38.1611ZM-38.1611 101.883H-40.8611V104.583L-38.1611 104.583L-38.1611 101.883ZM24.5049 101.883H27.2049V99.1828L24.5049 99.1828L24.5049 101.883ZM24.5049 146.676H21.8049V149.376H24.5049V146.676ZM43.2969 146.676V149.376H45.9969V146.676H43.2969ZM43.2969 101.883V99.1828H40.5969V101.883H43.2969ZM40.5983 83.091V101.883H45.9983V83.091H40.5983ZM-38.1611 85.791L43.2983 85.791L43.2983 80.391L-38.1611 80.391L-38.1611 85.791ZM-35.4611 101.883V83.091H-40.8611V101.883H-35.4611ZM24.5049 99.1828L-38.1611 99.1828L-38.1611 104.583L24.5049 104.583L24.5049 99.1828ZM27.2049 146.676V101.883H21.8049V146.676H27.2049ZM43.2969 143.976H24.5049V149.376H43.2969V143.976ZM40.5969 101.883V146.676H45.9969V101.883H40.5969ZM43.2983 99.1828H43.2969V104.583H43.2983V99.1828Z" fill="black" mask="url(#path-2-inside-1_655_1496)"/>
</g>
</svg>
