<svg width="129" height="129" viewBox="0 0 129 129" fill="none" xmlns="http://www.w3.org/2000/svg">
<mask id="mask0_654_1476" style="mask-type:alpha" maskUnits="userSpaceOnUse" x="0" y="0" width="129" height="129">
<rect x="1.64844" y="1.79185" width="126" height="126" fill="#C8C8C8" stroke="white" stroke-width="2"/>
</mask>
<g mask="url(#mask0_654_1476)">
<mask id="path-2-inside-1_654_1476" fill="white">
<path fill-rule="evenodd" clip-rule="evenodd" d="M41.5645 22.8396V41.6314H41.5643V134.874H22.7725V41.6314L-39.895 41.6314V22.8396L41.5645 22.8396ZM171.298 83.091V101.883H108.631V136.684H89.8389V101.883V85.2956V83.091L171.298 83.091Z"/>
</mask>
<path fill-rule="evenodd" clip-rule="evenodd" d="M41.5645 22.8396V41.6314H41.5643V134.874H22.7725V41.6314L-39.895 41.6314V22.8396L41.5645 22.8396ZM171.298 83.091V101.883H108.631V136.684H89.8389V101.883V85.2956V83.091L171.298 83.091Z" fill="#13960C"/>
<path d="M41.5645 41.6314V44.3314H44.2645V41.6314H41.5645ZM41.5645 22.8396H44.2645V20.1396L41.5645 20.1396L41.5645 22.8396ZM41.5643 41.6314V38.9314H38.8643V41.6314H41.5643ZM41.5643 134.874V137.574H44.2643V134.874H41.5643ZM22.7725 134.874H20.0725V137.574H22.7725V134.874ZM22.7725 41.6314H25.4725V38.9314L22.7725 38.9314L22.7725 41.6314ZM-39.895 41.6314H-42.595V44.3314L-39.895 44.3314L-39.895 41.6314ZM-39.895 22.8396L-39.895 20.1396L-42.595 20.1396V22.8396H-39.895ZM171.298 101.883V104.583H173.998V101.883H171.298ZM171.298 83.091H173.998V80.391L171.298 80.391L171.298 83.091ZM108.631 101.883V99.1828H105.931V101.883H108.631ZM108.631 136.684V139.384H111.331V136.684H108.631ZM89.8389 136.684H87.1389V139.384H89.8389V136.684ZM89.8389 83.091L89.8389 80.391L87.1389 80.391V83.091H89.8389ZM44.2645 41.6314V22.8396H38.8645V41.6314H44.2645ZM41.5643 44.3314H41.5645V38.9314H41.5643V44.3314ZM44.2643 134.874V41.6314H38.8643V134.874H44.2643ZM22.7725 137.574H41.5643V132.174H22.7725V137.574ZM20.0725 41.6314V134.874H25.4725V41.6314H20.0725ZM-39.895 44.3314L22.7725 44.3314L22.7725 38.9314L-39.895 38.9314L-39.895 44.3314ZM-42.595 22.8396V41.6314H-37.195V22.8396H-42.595ZM41.5645 20.1396L-39.895 20.1396L-39.895 25.5396L41.5645 25.5396L41.5645 20.1396ZM173.998 101.883V83.091H168.598V101.883H173.998ZM108.631 104.583H171.298V99.1828H108.631V104.583ZM111.331 136.684V101.883H105.931V136.684H111.331ZM89.8389 139.384H108.631V133.984H89.8389V139.384ZM87.1389 101.883V136.684H92.5389V101.883H87.1389ZM87.1389 85.2956V101.883H92.5389V85.2956H87.1389ZM87.1389 83.091V85.2956H92.5389V83.091H87.1389ZM171.298 80.391L89.8389 80.391L89.8389 85.791L171.298 85.791L171.298 80.391Z" fill="black" mask="url(#path-2-inside-1_654_1476)"/>
</g>
</svg>
