<svg width="129" height="129" viewBox="0 0 129 129" fill="none" xmlns="http://www.w3.org/2000/svg">
<mask id="mask0_653_1474" style="mask-type:alpha" maskUnits="userSpaceOnUse" x="0" y="0" width="129" height="129">
<rect x="1.64844" y="1.79185" width="126" height="126" fill="#C8C8C8" stroke="white" stroke-width="2"/>
</mask>
<g mask="url(#mask0_653_1474)">
<mask id="path-2-inside-1_653_1474" fill="white">
<path fill-rule="evenodd" clip-rule="evenodd" d="M169.319 41.586V22.8396L87.978 22.8396L87.978 31.6811H87.9778V135.759H106.742V41.586L169.319 41.586Z"/>
</mask>
<path fill-rule="evenodd" clip-rule="evenodd" d="M169.319 41.586V22.8396L87.978 22.8396L87.978 31.6811H87.9778V135.759H106.742V41.586L169.319 41.586Z" fill="#13960C"/>
<path d="M169.319 22.8396H172.019V20.1396L169.319 20.1396L169.319 22.8396ZM169.319 41.586L169.319 44.286L172.019 44.286V41.586H169.319ZM87.978 22.8396L87.978 20.1396L85.278 20.1396L85.278 22.8396L87.978 22.8396ZM87.978 31.6811V34.3811H90.678L90.678 31.6811L87.978 31.6811ZM87.9778 31.6811V28.9811H85.2778V31.6811H87.9778ZM87.9778 135.759H85.2778V138.459H87.9778V135.759ZM106.742 135.759V138.459H109.442V135.759H106.742ZM106.742 41.586L106.742 38.886L104.042 38.886V41.586H106.742ZM166.619 22.8396V41.586H172.019V22.8396H166.619ZM87.978 25.5396L169.319 25.5396L169.319 20.1396L87.978 20.1396L87.978 25.5396ZM90.678 31.6811L90.678 22.8396L85.278 22.8396L85.278 31.6811L90.678 31.6811ZM87.9778 34.3811H87.978V28.9811H87.9778V34.3811ZM90.6778 135.759V31.6811H85.2778V135.759H90.6778ZM106.742 133.059H87.9778V138.459H106.742V133.059ZM104.042 41.586V135.759H109.442V41.586H104.042ZM169.319 38.886L106.742 38.886L106.742 44.286L169.319 44.286L169.319 38.886Z" fill="black" mask="url(#path-2-inside-1_653_1474)"/>
</g>
</svg>
