<svg width="129" height="129" viewBox="0 0 129 129" fill="none" xmlns="http://www.w3.org/2000/svg">
<mask id="mask0_655_1487" style="mask-type:alpha" maskUnits="userSpaceOnUse" x="0" y="0" width="129" height="129">
<rect x="0.648438" y="0.79187" width="128" height="128" fill="#D9D9D9"/>
</mask>
<g mask="url(#mask0_655_1487)">
<mask id="path-2-inside-1_655_1487" fill="white">
<path fill-rule="evenodd" clip-rule="evenodd" d="M41.5659 -10.5994H22.7739V72.1486V90.9404H41.5659L89.8389 90.9404V90.9406H108.631V90.9404V72.1486V-10.5993H89.8389V72.1486H41.5659V-10.5994Z"/>
</mask>
<path fill-rule="evenodd" clip-rule="evenodd" d="M41.5659 -10.5994H22.7739V72.1486V90.9404H41.5659L89.8389 90.9404V90.9406H108.631V90.9404V72.1486V-10.5993H89.8389V72.1486H41.5659V-10.5994Z" fill="#13960C"/>
<path d="M22.7739 -10.5994V-13.2994H20.0739V-10.5994H22.7739ZM41.5659 -10.5994H44.2659V-13.2994H41.5659V-10.5994ZM22.7739 90.9404H20.0739V93.6404H22.7739V90.9404ZM41.5659 90.9404L41.5659 93.6404L41.5659 93.6404L41.5659 90.9404ZM89.8389 90.9404H92.5389V88.2404L89.8389 88.2404L89.8389 90.9404ZM89.8389 90.9406H87.1389V93.6406H89.8389V90.9406ZM108.631 90.9406V93.6406H111.331V90.9406H108.631ZM108.631 -10.5993H111.331V-13.2993H108.631V-10.5993ZM89.8389 -10.5993V-13.2993H87.1389V-10.5993H89.8389ZM89.8389 72.1486V74.8486H92.5389V72.1486H89.8389ZM41.5659 72.1486H38.8659V74.8486H41.5659V72.1486ZM22.7739 -7.89943H41.5659V-13.2994H22.7739V-7.89943ZM25.4739 72.1486V-10.5994H20.0739V72.1486H25.4739ZM20.0739 72.1486V90.9404H25.4739V72.1486H20.0739ZM22.7739 93.6404H41.5659V88.2404H22.7739V93.6404ZM41.5659 93.6404L89.8389 93.6404L89.8389 88.2404L41.5659 88.2404L41.5659 93.6404ZM87.1389 90.9404V90.9406H92.5389V90.9404H87.1389ZM89.8389 93.6406H108.631V88.2406H89.8389V93.6406ZM111.331 90.9406V90.9404H105.931V90.9406H111.331ZM111.331 90.9404V72.1486H105.931V90.9404H111.331ZM111.331 72.1486V-10.5993H105.931V72.1486H111.331ZM108.631 -13.2993H89.8389V-7.89927H108.631V-13.2993ZM87.1389 -10.5993V72.1486H92.5389V-10.5993H87.1389ZM89.8389 69.4486H41.5659V74.8486H89.8389V69.4486ZM38.8659 -10.5994V72.1486H44.2659V-10.5994H38.8659Z" fill="black" mask="url(#path-2-inside-1_655_1487)"/>
</g>
</svg>
