<svg width="129" height="129" viewBox="0 0 129 129" fill="none" xmlns="http://www.w3.org/2000/svg">
<mask id="mask0_655_1503" style="mask-type:alpha" maskUnits="userSpaceOnUse" x="0" y="0" width="129" height="129">
<rect x="0.648438" y="0.79187" width="128" height="128" fill="#D9D9D9"/>
</mask>
<g mask="url(#mask0_655_1503)">
<mask id="path-2-inside-1_655_1503" fill="white">
<path d="M24.5049 -6.44458H43.2969V216.941H24.5049V-6.44458Z"/>
</mask>
<path d="M24.5049 -6.44458H43.2969V216.941H24.5049V-6.44458Z" fill="#13960C"/>
<path d="M40.5969 -6.44458V216.941H45.9969V-6.44458H40.5969ZM27.2049 216.941V-6.44458H21.8049V216.941H27.2049Z" fill="black" mask="url(#path-2-inside-1_655_1503)"/>
<mask id="path-4-inside-2_655_1503" fill="white">
<path fill-rule="evenodd" clip-rule="evenodd" d="M109.939 35.88H91.1475V54.6719V146.907H109.939V54.6719L133.262 54.6719V35.88H109.939Z"/>
</mask>
<path fill-rule="evenodd" clip-rule="evenodd" d="M109.939 35.88H91.1475V54.6719V146.907H109.939V54.6719L133.262 54.6719V35.88H109.939Z" fill="#13960C"/>
<path d="M91.1475 35.88V33.18H88.4475V35.88H91.1475ZM91.1475 146.907H88.4475V149.607H91.1475V146.907ZM109.939 146.907V149.607H112.639V146.907H109.939ZM109.939 54.6719L109.939 51.9719L107.239 51.9719V54.6719H109.939ZM133.262 54.6719L133.262 57.3719L135.962 57.3719V54.6719H133.262ZM133.262 35.88H135.962V33.18H133.262V35.88ZM91.1475 38.58H109.939V33.18H91.1475V38.58ZM93.8475 54.6719V35.88H88.4475V54.6719H93.8475ZM93.8475 146.907V54.6719H88.4475V146.907H93.8475ZM109.939 144.207H91.1475V149.607H109.939V144.207ZM107.239 54.6719V146.907H112.639V54.6719H107.239ZM133.262 51.9719L109.939 51.9719L109.939 57.3719L133.262 57.3719L133.262 51.9719ZM130.562 35.88V54.6719H135.962V35.88H130.562ZM109.939 38.58H133.262V33.18H109.939V38.58Z" fill="black" mask="url(#path-4-inside-2_655_1503)"/>
</g>
</svg>
