<svg width="129" height="129" viewBox="0 0 129 129" fill="none" xmlns="http://www.w3.org/2000/svg">
<mask id="mask0_694_1836" style="mask-type:alpha" maskUnits="userSpaceOnUse" x="0" y="0" width="129" height="129">
<rect x="0.529297" y="0.6604" width="128" height="128" fill="#D9D9D9"/>
</mask>
<g mask="url(#mask0_694_1836)">
<mask id="path-2-inside-1_694_1836" fill="white">
<path fill-rule="evenodd" clip-rule="evenodd" d="M24.3857 -10.3132H43.1777V70.0171H91.0283V-10.3132H109.82V70.0171V88.6045V88.809H43.1777V88.8091H24.3857V-10.3132Z"/>
</mask>
<path fill-rule="evenodd" clip-rule="evenodd" d="M24.3857 -10.3132H43.1777V70.0171H91.0283V-10.3132H109.82V70.0171V88.6045V88.809H43.1777V88.8091H24.3857V-10.3132Z" fill="#13960C"/>
<path d="M43.1777 -10.3132H45.9777V-13.1132H43.1777V-10.3132ZM24.3857 -10.3132V-13.1132H21.5857V-10.3132H24.3857ZM43.1777 70.0171H40.3777V72.8171H43.1777V70.0171ZM91.0283 70.0171V72.8171H93.8283V70.0171H91.0283ZM91.0283 -10.3132V-13.1132H88.2283V-10.3132H91.0283ZM109.82 -10.3132H112.62V-13.1132H109.82V-10.3132ZM109.82 88.809V91.609H112.62V88.809H109.82ZM43.1777 88.809V86.009H40.3777V88.809H43.1777ZM43.1777 88.8091V91.6091H45.9777V88.8091H43.1777ZM24.3857 88.8091H21.5857V91.6091H24.3857V88.8091ZM43.1777 -13.1132H24.3857V-7.51323H43.1777V-13.1132ZM45.9777 70.0171V-10.3132H40.3777V70.0171H45.9777ZM43.1777 72.8171H91.0283V67.2171H43.1777V72.8171ZM88.2283 -10.3132V70.0171H93.8283V-10.3132H88.2283ZM109.82 -13.1132H91.0283V-7.51323H109.82V-13.1132ZM112.62 70.0171V-10.3132H107.02V70.0171H112.62ZM107.02 70.0171V88.6045H112.62V70.0171H107.02ZM107.02 88.6045V88.809H112.62V88.6045H107.02ZM109.82 86.009H43.1777V91.609H109.82V86.009ZM45.9777 88.8091V88.809H40.3777V88.8091H45.9777ZM24.3857 91.6091H43.1777V86.0091H24.3857V91.6091ZM21.5857 -10.3132V88.8091H27.1857V-10.3132H21.5857Z" fill="black" mask="url(#path-2-inside-1_694_1836)"/>
</g>
</svg>
