<svg width="263" height="257" viewBox="0 0 263 257" fill="none" xmlns="http://www.w3.org/2000/svg">
<g clip-path="url(#clip0_40_27)">
<path d="M135 104.36V22.01" stroke="black" stroke-width="5.4" stroke-miterlimit="10"/>
<path d="M135 26.86L125.27 32.78L125.05 32.45L131.35 16.59C132.57 11.06 133.78 5.54001 135 0.0100098C136.22 5.54001 137.43 11.06 138.65 16.59L144.95 32.45L144.78 32.78L135 26.86Z" fill="black"/>
<path d="M156.94 127.91H238.85" stroke="black" stroke-width="5.4" stroke-miterlimit="10"/>
<path d="M234 127.91L228.08 118.18L228.41 117.96L244.27 124.26C249.8 125.48 255.32 126.69 260.85 127.91C255.32 129.13 249.8 130.34 244.27 131.56L228.41 137.86L228.08 137.69L234 127.91Z" fill="black"/>
<path d="M112.16 127.91H30.25" stroke="black" stroke-width="5.4" stroke-miterlimit="10"/>
<path d="M35.1 127.91L41.02 137.64L40.69 137.86L24.83 131.56C19.3 130.34 13.78 129.13 8.25 127.91C13.78 126.69 19.3 125.48 24.83 124.26L40.69 117.96L41.02 118.13L35.1 127.91Z" fill="black"/>
<path d="M135 149.43V245.12" stroke="black" stroke-width="5.4" stroke-miterlimit="10"/>
<path d="M125.86 244.66C125.86 249.71 129.95 253.8 135 253.8C140.05 253.8 144.14 249.71 144.14 244.66C144.14 239.61 140.05 235.52 135 235.52C129.95 235.52 125.86 239.61 125.86 244.66Z" fill="black"/>
<path d="M0.110352 128.09H110.11" stroke="black" stroke-width="5.4" stroke-miterlimit="10"/>
<path d="M160.11 128.09H262.11" stroke="black" stroke-width="5.4" stroke-miterlimit="10"/>
<path d="M217.475 97.7473L209.522 89.7937L180.663 118.652L188.617 126.606L184.748 130.475L172.925 118.652L173.677 117.9C174.68 116.897 175.164 115.732 175.128 114.407C175.128 113.045 174.286 111.057 172.602 108.442C170.919 105.755 168.249 102.584 164.595 98.9295L144.335 78.6695L170.56 52.4443L204.846 86.7305L209.522 82.0551L221.345 93.878L217.475 97.7473ZM152.289 78.4546L169.485 95.6514C175.863 102.029 179.427 107.277 180.18 111.397L200.762 90.8148L170.345 60.3979L152.289 78.4546Z" fill="black"/>
<path d="M134.637 149.095C140.691 149.131 145.922 146.945 150.329 142.538C154.736 138.132 156.903 132.919 156.831 126.9C156.796 120.845 154.539 115.579 150.06 111.1C145.618 106.658 140.369 104.419 134.314 104.383C128.26 104.275 123.029 106.425 118.622 110.832C114.216 115.238 112.048 120.487 112.12 126.578C112.191 132.596 114.448 137.827 118.891 142.27C123.369 146.748 128.618 149.023 134.637 149.095ZM162.474 126.739C162.474 134.334 159.715 140.89 154.198 146.408C148.681 151.925 142.107 154.702 134.476 154.737C126.88 154.737 120.306 151.961 114.753 146.408C109.2 140.855 106.423 134.28 106.423 126.685C106.459 119.054 109.236 112.48 114.753 106.962C120.27 101.445 126.827 98.6865 134.422 98.6865C142.053 98.6506 148.645 101.409 154.198 106.962C159.751 112.516 162.51 119.108 162.474 126.739Z" fill="black"/>
<path d="M102.826 196.49L64.6709 158.334L76.7087 146.296C80.2197 142.785 83.9457 140.958 87.8866 140.815C91.8276 140.672 95.1595 141.961 97.8823 144.684C101.608 148.41 102.862 152.566 101.644 157.152C107.77 154.107 113.109 154.859 117.659 159.409C120.919 162.669 122.388 166.539 122.065 171.017C121.779 175.459 119.665 179.651 115.724 183.592L102.826 196.49ZM103.203 188.697L112.446 179.454C115.24 176.66 116.727 173.883 116.906 171.124C117.085 168.366 116.1 165.912 113.951 163.762C111.801 161.612 109.347 160.627 106.588 160.806C103.83 160.914 101.053 162.365 98.2585 165.159L88.9614 174.456L103.203 188.697ZM85.4146 170.909L93.6368 162.687C95.8581 160.466 97.0045 158.137 97.0762 155.701C97.112 153.229 96.1805 151.043 94.2817 149.145C92.4904 147.353 90.3228 146.476 87.7791 146.511C85.2354 146.476 82.8709 147.55 80.6855 149.736L72.4632 157.958L85.4146 170.909Z" fill="black"/>
<path d="M79.8329 220.773C74.3156 226.29 67.7414 229.067 60.1103 229.102C52.515 229.102 45.9408 226.326 40.3877 220.773C34.8345 215.22 32.0579 208.645 32.0579 201.05C32.0938 193.419 34.8703 186.845 40.3877 181.327C43.8629 177.852 47.8575 175.47 52.3717 174.18C56.8501 172.854 61.3642 172.675 65.9142 173.643L64.6782 179.178C61.0597 178.354 57.4591 178.443 53.8764 179.447C50.2938 180.45 47.0873 182.366 44.257 185.197C39.8503 189.603 37.6827 194.852 37.7544 200.943C37.826 206.961 40.0831 212.192 44.5257 216.635C49.004 221.113 54.2526 223.388 60.2715 223.46C66.3262 223.496 71.5569 221.31 75.9636 216.903C78.7939 214.073 80.7107 210.867 81.7138 207.284C82.717 203.701 82.8065 200.101 81.9825 196.482L87.5177 195.246C88.4851 199.796 88.3238 204.328 87.0341 208.842C85.7085 213.321 83.3081 217.297 79.8329 220.773Z" fill="black"/>
</g>
<defs>
<clipPath id="clip0_40_27">
<rect width="262.11" height="256.5" fill="white"/>
</clipPath>
</defs>
</svg>
