<svg width="338" height="282" viewBox="0 0 338 282" fill="none" xmlns="http://www.w3.org/2000/svg">
<mask id="mask0_923_18" style="mask-type:alpha" maskUnits="userSpaceOnUse" x="0" y="0" width="338" height="282">
<rect x="0.375122" y="0.845215" width="337.25" height="281" fill="#D9D9D9"/>
</mask>
<g mask="url(#mask0_923_18)">
<path d="M77.6319 199.828C74.4584 203.002 70.6626 204.599 66.2446 204.62C61.8059 204.62 57.9894 203.022 54.7952 199.828C51.6009 196.634 50.0142 192.828 50.0349 188.41C50.0349 183.971 51.6217 180.165 54.7952 176.991C56.8901 174.897 59.265 173.476 61.92 172.729C64.5749 171.982 67.2402 171.93 69.9159 172.573L68.9514 176.463C66.898 175.985 64.8757 176.017 62.8845 176.556C60.8933 177.095 59.1095 178.153 57.5331 179.729C55.127 182.135 53.9448 184.998 53.9862 188.316C54.0485 191.614 55.293 194.477 57.7198 196.904C60.1466 199.33 63.0089 200.575 66.3069 200.637C69.6256 200.679 72.4879 199.496 74.894 197.09C76.4703 195.514 77.5282 193.73 78.0675 191.739C78.6068 189.748 78.6379 187.725 78.1608 185.672L82.0499 184.707C82.6929 187.383 82.641 190.048 81.8943 192.703C81.1476 195.358 79.7268 197.733 77.6319 199.828ZM90.8511 185.862L68.7611 163.772L76.0104 156.523C78.0016 154.532 80.1691 153.505 82.5129 153.443C84.8568 153.381 86.8376 154.158 88.4555 155.776C90.4882 157.809 91.2037 160.101 90.6022 162.652C94.0869 161.034 97.1255 161.522 99.7183 164.114C101.585 165.981 102.446 168.211 102.301 170.804C102.155 173.355 100.973 175.74 98.7538 177.96L90.8511 185.862ZM91.1312 180.355L96.2647 175.222C97.7167 173.77 98.4841 172.339 98.5671 170.928C98.6501 169.476 98.1211 168.18 96.9803 167.039C95.8603 165.919 94.5743 165.4 93.1224 165.483C91.6704 165.525 90.2289 166.261 88.7977 167.692L83.633 172.857L91.1312 180.355ZM81.144 170.368L85.4998 166.012C86.6613 164.851 87.2628 163.627 87.3043 162.341C87.3458 161.014 86.8583 159.842 85.842 158.825C84.8671 157.85 83.7056 157.373 82.3574 157.394C81.0092 157.415 79.7646 157.996 78.6238 159.136L74.2681 163.492L81.144 170.368ZM117.947 154.037C120.374 151.61 121.556 148.748 121.494 145.45C121.453 142.131 120.219 139.258 117.792 136.832C115.365 134.405 112.492 133.171 109.174 133.129C105.876 133.067 103.013 134.249 100.586 136.676C98.1804 139.082 96.9982 141.944 97.0396 145.263C97.1019 148.561 98.3464 151.423 100.773 153.85C103.2 156.277 106.062 157.521 109.36 157.584C112.679 157.625 115.541 156.443 117.947 154.037ZM120.685 156.775C117.512 159.948 113.716 161.545 109.298 161.566C104.859 161.566 101.043 159.969 97.8486 156.775C94.6543 153.581 93.0676 149.774 93.0883 145.356C93.0883 140.918 94.6751 137.112 97.8486 133.938C101.043 130.744 104.849 129.157 109.267 129.178C113.685 129.157 117.491 130.744 120.685 133.938C123.88 137.132 125.477 140.949 125.477 145.387C125.477 149.785 123.88 153.581 120.685 156.775ZM157.043 128.879L152.439 124.275L136.353 140.36L140.958 144.965L138.282 147.64L130.94 140.298L131.344 139.893C131.925 139.312 132.215 138.649 132.215 137.902C132.236 137.135 131.79 136.025 130.878 134.573C129.986 133.1 128.534 131.358 126.522 129.346L114.855 117.679L130.286 102.247L149.639 121.599L152.376 118.861L159.719 126.204L157.043 128.879ZM120.486 117.523L129.882 126.919C133.201 130.238 135.14 133.111 135.7 135.537L146.745 124.492L130.131 107.878L120.486 117.523ZM113.069 225.869L90.8237 227.083L101.34 237.599L98.4774 240.461L76.3874 218.371L79.2497 215.509L88.8325 225.092L88.8947 205.864L92.6593 202.099V223.132L117.145 221.794L113.069 225.869ZM124.905 209.304C127.332 206.878 128.514 204.015 128.452 200.717C128.411 197.399 127.176 194.526 124.75 192.099C122.323 189.672 119.45 188.438 116.131 188.397C112.833 188.334 109.971 189.517 107.544 191.944C105.138 194.35 103.956 197.212 103.997 200.531C104.06 203.829 105.304 206.691 107.731 209.118C110.158 211.545 113.02 212.789 116.318 212.851C119.637 212.893 122.499 211.71 124.905 209.304ZM127.643 212.042C124.47 215.216 120.674 216.813 116.256 216.834C111.817 216.834 108.001 215.237 104.806 212.042C101.612 208.848 100.025 205.042 100.046 200.624C100.046 196.185 101.633 192.379 104.806 189.206C108.001 186.011 111.807 184.425 116.225 184.445C120.643 184.425 124.449 186.011 127.643 189.206C130.837 192.4 132.434 196.216 132.434 200.655C132.434 205.052 130.837 208.848 127.643 212.042ZM137.526 188.719L121.783 172.976L137.215 157.544L159.305 179.634L156.442 182.496L137.09 163.144L127.414 172.82L140.855 186.261C143.053 188.46 144.215 190.492 144.339 192.359C144.464 194.226 143.79 195.896 142.317 197.368C141.591 198.094 140.969 198.634 140.45 198.986L137.806 196.342C138.138 196.134 138.635 195.699 139.299 195.035C140.108 194.226 140.399 193.355 140.17 192.421C139.942 191.488 139.061 190.254 137.526 188.719ZM160.192 166.053L144.449 150.31L159.881 134.878L181.971 156.968L179.108 159.83L159.756 140.478L150.08 150.154L163.521 163.595C165.72 165.794 166.881 167.826 167.006 169.693C167.13 171.56 166.456 173.23 164.983 174.702C164.257 175.428 163.635 175.967 163.116 176.32L160.472 173.676C160.804 173.468 161.302 173.033 161.965 172.369C162.774 171.56 163.065 170.689 162.836 169.755C162.608 168.822 161.727 167.588 160.192 166.053ZM187.805 151.134L165.715 129.044L178.596 116.163L181.333 118.901L171.346 128.888L178.035 135.578L186.156 127.457L188.894 130.195L180.773 138.315L187.96 145.502L197.948 135.515L200.686 138.253L187.805 151.134ZM219.715 119.223L197.47 120.437L207.986 130.953L205.123 133.815L183.033 111.725L185.896 108.863L195.479 118.446L195.541 99.218L199.305 95.4533V116.485L223.791 115.148L219.715 119.223ZM230.477 108.462L211.125 89.1095L204.249 95.9854L201.511 93.2475L218.094 76.6644L220.832 79.4023L213.956 86.2782L233.308 105.63L230.477 108.462ZM246.17 92.7689L243.65 95.289L221.56 73.199L224.453 70.3055L241.627 87.4797L237.894 56.8648L240.383 54.3758L262.473 76.4658L259.611 79.3282L242.405 62.1229L246.17 92.7689ZM268.352 70.5872L246.261 48.4972L253.511 41.2479C255.502 39.2567 257.669 38.23 260.013 38.1678C262.357 38.1056 264.338 38.8834 265.956 40.5012C267.989 42.5339 268.704 44.8259 268.103 47.3771C271.587 45.7593 274.626 46.2467 277.219 48.8394C279.085 50.7062 279.946 52.936 279.801 55.5287C279.656 58.0799 278.474 60.4652 276.254 62.6846L268.352 70.5872ZM268.632 65.0803L273.765 59.9467C275.217 58.4948 275.984 57.0636 276.067 55.6531C276.15 54.2012 275.622 52.9048 274.481 51.764C273.361 50.644 272.075 50.1254 270.623 50.2084C269.171 50.2499 267.729 50.9862 266.298 52.4174L261.133 57.5821L268.632 65.0803ZM258.644 55.0931L263 50.7373C264.162 49.5758 264.763 48.352 264.805 47.066C264.846 45.7385 264.359 44.5666 263.342 43.5503C262.367 42.5754 261.206 42.0984 259.858 42.1191C258.51 42.1398 257.265 42.7206 256.124 43.8614L251.768 48.2172L258.644 55.0931Z" fill="black"/>
</g>
</svg>
